<?xml version="1.0" standalone="no"?>
<!DOCTYPE svg PUBLIC "-//W3C//DTD SVG 20010904//EN"
 "http://www.w3.org/TR/2001/REC-SVG-20010904/DTD/svg10.dtd">
<svg version="1.0" xmlns="http://www.w3.org/2000/svg"
 width="580.000000pt" height="432.000000pt" viewBox="0 0 580.000000 432.000000"
 preserveAspectRatio="xMidYMid meet">

<g transform="translate(0.000000,432.000000) scale(0.100000,-0.100000)"
fill="#000000" stroke="none">
<path d="M3495 3379 c-62 -127 -81 -159 -94 -154 -87 35 -235 77 -316 91 -120
19 -339 14 -455 -11 -375 -82 -699 -333 -869 -673 -168 -336 -172 -758 -11
-1097 94 -197 256 -384 438 -506 57 -38 107 -69 113 -69 17 0 9 -21 -66 -177
-41 -86 -74 -158 -72 -159 2 -2 39 69 82 157 59 118 84 159 95 155 8 -3 56
-21 105 -40 271 -105 600 -107 876 -6 295 107 551 336 694 620 37 73 95 230
95 257 0 10 -25 13 -105 13 -77 0 -105 -3 -105 -12 -1 -28 -72 -184 -117 -256
-55 -89 -171 -214 -261 -283 -128 -97 -309 -173 -475 -199 -104 -17 -318 -7
-414 18 -107 29 -214 74 -211 88 2 7 62 132 133 278 l130 265 258 1 259 0 36
-80 36 -80 163 0 c90 0 163 3 163 8 -1 4 -110 239 -244 522 l-242 514 109 226
c60 124 110 227 113 229 7 7 68 -23 138 -70 194 -127 347 -328 417 -546 l23
-73 103 0 c57 0 103 4 103 9 0 5 -11 47 -24 93 -89 305 -318 590 -598 743 -38
20 -68 38 -68 40 0 2 34 75 75 161 41 87 74 159 72 160 -2 2 -39 -68 -82 -157z
m-455 -263 c90 -14 238 -55 269 -75 12 -8 -4 -49 -90 -226 -57 -119 -107 -219
-111 -221 -4 -3 -26 36 -49 86 l-42 90 -76 0 -76 0 -291 -622 -290 -623 148
-3 c92 -1 148 -6 148 -13 0 -9 -166 -358 -174 -366 -7 -7 -79 34 -143 81 -300
220 -463 590 -423 955 27 250 127 460 304 637 238 239 567 349 896 300z m11
-1113 l18 -43 -125 0 c-147 0 -140 -18 -57 157 l56 118 45 -95 c24 -52 53
-114 63 -137z"/>
<path d="M3954 2067 l-61 -132 31 -3 c19 -2 34 2 42 12 16 22 122 23 130 1 4
-9 19 -15 41 -15 24 0 34 4 30 13 -2 6 -31 67 -62 135 -39 81 -63 122 -74 122
-11 0 -36 -43 -77 -133z m84 -45 c-28 -5 -33 4 -18 35 l13 28 12 -30 c12 -27
12 -30 -7 -33z"/>
</g>
</svg>
